<svg viewBox="0 0 1200 800" xmlns="http://www.w3.org/2000/svg">
  <defs>
    <linearGradient id="heroGradient" x1="0%" y1="0%" x2="100%" y2="100%">
      <stop offset="0%" style="stop-color:#f8fafc;stop-opacity:1" />
      <stop offset="50%" style="stop-color:#ffffff;stop-opacity:1" />
      <stop offset="100%" style="stop-color:#f0f9ff;stop-opacity:1" />
    </linearGradient>
    
    <pattern id="gridPattern" width="60" height="40" patternUnits="userSpaceOnUse">
      <path d="M 60 0 L 0 0 0 40" fill="none" stroke="#e2e8f0" stroke-width="1" opacity="0.3"/>
    </pattern>
  </defs>
  
  <!-- Background -->
  <rect width="1200" height="800" fill="url(#heroGradient)"/>
  
  <!-- Grid pattern -->
  <rect width="1200" height="800" fill="url(#gridPattern)"/>
  
  <!-- Floating geometric shapes -->
  <circle cx="150" cy="150" r="60" fill="#0ea5e9" opacity="0.1"/>
  <circle cx="1050" cy="200" r="40" fill="#eab308" opacity="0.15"/>
  <rect x="900" y="500" width="80" height="80" rx="20" fill="#0ea5e9" opacity="0.1" transform="rotate(15 940 540)"/>
  <circle cx="200" cy="650" r="35" fill="#0ea5e9" opacity="0.12"/>
  <rect x="1000" y="100" width="60" height="60" rx="15" fill="#eab308" opacity="0.1" transform="rotate(25 1030 130)"/>
  
  <!-- Salesforce cloud-like shapes -->
  <path d="M100 300 Q120 280 150 300 Q180 285 200 310 Q190 330 160 325 Q130 340 100 320 Z" fill="#0ea5e9" opacity="0.08"/>
  <path d="M950 600 Q970 580 1000 600 Q1030 585 1050 610 Q1040 630 1010 625 Q980 640 950 620 Z" fill="#eab308" opacity="0.1"/>
  
  <!-- Abstract connection lines -->
  <line x1="150" y1="150" x2="200" y2="300" stroke="#0ea5e9" stroke-width="2" opacity="0.1" stroke-dasharray="5,5"/>
  <line x1="1050" y1="200" x2="950" y2="600" stroke="#eab308" stroke-width="2" opacity="0.1" stroke-dasharray="5,5"/>
  <line x1="200" y1="650" x2="950" y2="600" stroke="#0ea5e9" stroke-width="1" opacity="0.08" stroke-dasharray="3,3"/>
</svg>
