<svg viewBox="0 0 40 40" xmlns="http://www.w3.org/2000/svg">
  <defs>
    <linearGradient id="iconGradient" x1="0%" y1="0%" x2="100%" y2="100%">
      <stop offset="0%" style="stop-color:#0ea5e9;stop-opacity:1" />
      <stop offset="100%" style="stop-color:#0369a1;stop-opacity:1" />
    </linearGradient>
  </defs>
  
  <!-- Wizard hat shape -->
  <path d="M10 32 L20 8 L30 32 Z" fill="url(#iconGradient)" />
  
  <!-- Stars on hat -->
  <circle cx="17" cy="16" r="1.2" fill="white" opacity="0.9"/>
  <circle cx="23" cy="20" r="0.8" fill="white" opacity="0.7"/>
  <circle cx="20" cy="24" r="1" fill="white" opacity="0.8"/>
  
  <!-- Wand -->
  <line x1="30" y1="32" x2="35" y2="27" stroke="url(#iconGradient)" stroke-width="2" stroke-linecap="round"/>
  <circle cx="35" cy="27" r="1.5" fill="url(#iconGradient)"/>
  
  <!-- CRM Elements -->
  <rect x="8" y="34" width="4" height="2" rx="1" fill="#64748b"/>
  <rect x="14" y="34" width="4" height="2" rx="1" fill="#64748b"/>
  <rect x="20" y="34" width="4" height="2" rx="1" fill="#64748b"/>
  <rect x="26" y="34" width="4" height="2" rx="1" fill="#64748b"/>
  
  <!-- Connection lines -->
  <line x1="10" y1="34" x2="20" y2="32" stroke="#94a3b8" stroke-width="0.8" opacity="0.6"/>
  <line x1="16" y1="34" x2="20" y2="32" stroke="#94a3b8" stroke-width="0.8" opacity="0.6"/>
  <line x1="22" y1="34" x2="20" y2="32" stroke="#94a3b8" stroke-width="0.8" opacity="0.6"/>
  <line x1="28" y1="34" x2="20" y2="32" stroke="#94a3b8" stroke-width="0.8" opacity="0.6"/>
</svg>
